<svg width="133" height="68" viewBox="0 0 133 68" fill="none" xmlns="http://www.w3.org/2000/svg">
<g opacity="0.5">
<path d="M47.2064 0H29.6118C29.2011 0 28.8682 0.334001 28.8682 0.746013C28.8682 1.15802 29.2011 1.49203 29.6118 1.49203H47.2064C47.6171 1.49203 47.95 1.15802 47.95 0.746013C47.95 0.334001 47.6171 0 47.2064 0Z" fill="#9FC5FF"/>
<path d="M61.6252 0H52.8725C52.4618 0 52.1289 0.334001 52.1289 0.746013C52.1289 1.15802 52.4618 1.49203 52.8725 1.49203H61.6252C62.0359 1.49203 62.3688 1.15802 62.3688 0.746013C62.3688 0.334001 62.0359 0 61.6252 0Z" fill="#9FC5FF"/>
<path d="M101.812 6.10229H84.2175C83.8068 6.10229 83.4739 6.4363 83.4739 6.84831C83.4739 7.26032 83.8068 7.59432 84.2175 7.59432H101.812C102.223 7.59432 102.556 7.26032 102.556 6.84831C102.556 6.4363 102.223 6.10229 101.812 6.10229Z" fill="#9FC5FF"/>
<path d="M116.231 6.10229H107.478C107.068 6.10229 106.735 6.4363 106.735 6.84831C106.735 7.26032 107.068 7.59432 107.478 7.59432H116.231C116.642 7.59432 116.975 7.26032 116.975 6.84831C116.975 6.4363 116.642 6.10229 116.231 6.10229Z" fill="#9FC5FF"/>
<path d="M22.4949 11.7944H4.90038C4.48968 11.7944 4.15674 12.1284 4.15674 12.5404C4.15674 12.9525 4.48968 13.2865 4.90038 13.2865H22.4949C22.9056 13.2865 23.2386 12.9525 23.2386 12.5404C23.2386 12.1284 22.9056 11.7944 22.4949 11.7944Z" fill="#9FC5FF"/>
<path d="M36.9145 11.7944H28.1619C27.7512 11.7944 27.4182 12.1284 27.4182 12.5404C27.4182 12.9525 27.7512 13.2865 28.1619 13.2865H36.9145C37.3252 13.2865 37.6582 12.9525 37.6582 12.5404C37.6582 12.1284 37.3252 11.7944 36.9145 11.7944Z" fill="#9FC5FF"/>
<path d="M25.3061 27.2965H0.743641C0.332939 27.2965 0 27.6305 0 28.0425C0 28.4545 0.332939 28.7885 0.743641 28.7885H25.3061C25.7168 28.7885 26.0497 28.4545 26.0497 28.0425C26.0497 27.6305 25.7168 27.2965 25.3061 27.2965Z" fill="#9FC5FF"/>
<path d="M44.998 27.2965H32.5049C32.0942 27.2965 31.7612 27.6305 31.7612 28.0425C31.7612 28.4545 32.0942 28.7885 32.5049 28.7885H44.998C45.4087 28.7885 45.7417 28.4545 45.7417 28.0425C45.7417 27.6305 45.4087 27.2965 44.998 27.2965Z" fill="#9FC5FF"/>
<path d="M102.154 40.3518H77.5915C77.1808 40.3518 76.8479 40.6858 76.8479 41.0978C76.8479 41.5098 77.1808 41.8438 77.5915 41.8438H102.154C102.565 41.8438 102.898 41.5098 102.898 41.0978C102.898 40.6858 102.565 40.3518 102.154 40.3518Z" fill="#9FC5FF"/>
<path d="M121.846 40.3518H109.353C108.942 40.3518 108.609 40.6858 108.609 41.0978C108.609 41.5098 108.942 41.8438 109.353 41.8438H121.846C122.257 41.8438 122.59 41.5098 122.59 41.0978C122.59 40.6858 122.257 40.3518 121.846 40.3518Z" fill="#9FC5FF"/>
<path d="M85.9052 29.8405H61.3428C60.9321 29.8405 60.5991 30.1745 60.5991 30.5865C60.5991 30.9985 60.9321 31.3325 61.3428 31.3325H85.9052C86.3159 31.3325 86.6489 30.9985 86.6489 30.5865C86.6489 30.1745 86.3159 29.8405 85.9052 29.8405Z" fill="#9FC5FF"/>
<path d="M105.597 29.8405H93.104C92.6933 29.8405 92.3604 30.1745 92.3604 30.5865C92.3604 30.9985 92.6933 31.3325 93.104 31.3325H105.597C106.008 31.3325 106.341 30.9985 106.341 30.5865C106.341 30.1745 106.008 29.8405 105.597 29.8405Z" fill="#9FC5FF"/>
<path d="M25.3138 39.6134H11.5862C11.1755 39.6134 10.8425 39.9474 10.8425 40.3594C10.8425 40.7714 11.1755 41.1054 11.5862 41.1054H25.3138C25.7245 41.1054 26.0574 40.7714 26.0574 40.3594C26.0574 39.9474 25.7245 39.6134 25.3138 39.6134Z" fill="#9FC5FF"/>
<path d="M20.0711 52.3923H11.5862C11.1755 52.3923 10.8425 52.7263 10.8425 53.1383C10.8425 53.5504 11.1755 53.8844 11.5862 53.8844H20.0711C20.4818 53.8844 20.8148 53.5504 20.8148 53.1383C20.8148 52.7263 20.4818 52.3923 20.0711 52.3923Z" fill="#9FC5FF"/>
<path d="M46.2029 52.3923H24.4067C23.996 52.3923 23.6631 52.7263 23.6631 53.1383C23.6631 53.5504 23.996 53.8844 24.4067 53.8844H46.2029C46.6136 53.8844 46.9465 53.5504 46.9465 53.1383C46.9465 52.7263 46.6136 52.3923 46.2029 52.3923Z" fill="#9FC5FF"/>
<path d="M35.5686 60.9939H13.7724C13.3617 60.9939 13.0288 61.3279 13.0288 61.7399C13.0288 62.1519 13.3617 62.4859 13.7724 62.4859H35.5686C35.9793 62.4859 36.3122 62.1519 36.3122 61.7399C36.3122 61.3279 35.9793 60.9939 35.5686 60.9939Z" fill="#9FC5FF"/>
<path d="M70.4898 60.9939H58.7849C58.3742 60.9939 58.0413 61.3279 58.0413 61.7399C58.0413 62.1519 58.3742 62.4859 58.7849 62.4859H70.4898C70.9005 62.4859 71.2335 62.1519 71.2335 61.7399C71.2335 61.3279 70.9005 60.9939 70.4898 60.9939Z" fill="#9FC5FF"/>
<path d="M99.2835 60.9939H74.3716C73.9609 60.9939 73.6279 61.3279 73.6279 61.7399C73.6279 62.1519 73.9609 62.4859 74.3716 62.4859H99.2835C99.6943 62.4859 100.027 62.1519 100.027 61.7399C100.027 61.3279 99.6943 60.9939 99.2835 60.9939Z" fill="#9FC5FF"/>
<path d="M118.024 56.7865H99.7969C99.3862 56.7865 99.0532 57.1205 99.0532 57.5325C99.0532 57.9445 99.3862 58.2785 99.7969 58.2785H118.024C118.434 58.2785 118.767 57.9445 118.767 57.5325C118.767 57.1205 118.434 56.7865 118.024 56.7865Z" fill="#9FC5FF"/>
<path d="M118.024 66.2311H99.7969C99.3862 66.2311 99.0532 66.5651 99.0532 66.9771C99.0532 67.3891 99.3862 67.7231 99.7969 67.7231H118.024C118.434 67.7231 118.767 67.3891 118.767 66.9771C118.767 66.5651 118.434 66.2311 118.024 66.2311Z" fill="#9FC5FF"/>
<path d="M115.845 49.5801H90.9329C90.5221 49.5801 90.1892 49.9141 90.1892 50.3261C90.1892 50.7381 90.5221 51.0721 90.9329 51.0721H115.845C116.256 51.0721 116.588 50.7381 116.588 50.3261C116.588 49.9141 116.256 49.5801 115.845 49.5801Z" fill="#9FC5FF"/>
<path d="M132.256 49.5801H122.455C122.044 49.5801 121.711 49.9141 121.711 50.3261C121.711 50.7381 122.044 51.0721 122.455 51.0721H132.256C132.667 51.0721 133 50.7381 133 50.3261C133 49.9141 132.667 49.5801 132.256 49.5801Z" fill="#9FC5FF"/>
<path d="M38.9597 39.6134H32.5049C32.0942 39.6134 31.7612 39.9474 31.7612 40.3594C31.7612 40.7714 32.0942 41.1054 32.5049 41.1054H38.9597C39.3704 41.1054 39.7033 40.7714 39.7033 40.3594C39.7033 39.9474 39.3704 39.6134 38.9597 39.6134Z" fill="#9FC5FF"/>
<path d="M102.645 19.3367H85.0503C84.6396 19.3367 84.3066 19.6707 84.3066 20.0827C84.3066 20.4947 84.6396 20.8287 85.0503 20.8287H102.645C103.056 20.8287 103.388 20.4947 103.388 20.0827C103.388 19.6707 103.056 19.3367 102.645 19.3367Z" fill="#9FC5FF"/>
<path d="M126.412 19.3367H108.311C107.901 19.3367 107.568 19.6707 107.568 20.0827C107.568 20.4947 107.901 20.8287 108.311 20.8287H126.412C126.822 20.8287 127.155 20.4947 127.155 20.0827C127.155 19.6707 126.822 19.3367 126.412 19.3367Z" fill="#9FC5FF"/>
</g>
<path d="M81.471 9.12598H74.3162V23.8665H81.471V9.12598Z" fill="#005EF9"/>
<path d="M50.3897 9.9567V26.5591C54.1479 27.0321 57.7936 28.1623 61.1604 29.898L73.316 36.3605C74.2471 36.739 75.0063 37.447 75.449 38.3493C75.8917 39.2517 75.9869 40.2854 75.7163 41.2535C74.9316 44.9771 72.839 46.8696 71.1003 46.685L58.6062 44.5462C57.206 44.4078 56.6059 45.5772 57.8523 46.2388L60.1449 47.9621C63.2223 50.6086 70.4079 50.2394 74.3777 49.3315L80.3016 47.4236C84.9177 45.8849 87.4411 47.7621 88.2104 49.3469C88.7144 50.3395 88.9278 51.4542 88.8259 52.5628H98.8427C99.7042 52.5833 100.561 52.4313 101.363 52.1157C102.165 51.8001 102.896 51.3274 103.512 50.7252C104.129 50.1231 104.618 49.4037 104.953 48.6094C105.287 47.8152 105.459 46.9621 105.459 46.1003V9.9567C105.461 9.10023 105.293 8.25189 104.964 7.46098C104.636 6.67008 104.153 5.9524 103.545 5.34965C102.936 4.7469 102.214 4.27112 101.42 3.94995C100.626 3.62879 99.7761 3.46865 98.9197 3.47885H56.8675C56.0163 3.47682 55.173 3.64299 54.3861 3.96782C53.5993 4.29264 52.8844 4.76972 52.2825 5.37164C51.6805 5.97357 51.2035 6.68849 50.8786 7.47533C50.5538 8.26218 50.3876 9.10545 50.3897 9.9567ZM81.471 23.8048L79.9323 23.2817L77.9013 23.8048L75.7779 23.2817L74.3315 23.8048V9.12581H81.4864L81.471 23.8048ZM89.9338 45.3464H88.3951V38.33H89.9338V45.3464ZM93.8882 45.3464H91.6263V38.33H93.8882V45.3464ZM97.2733 45.3464H96.15V38.33H97.2733V45.3464ZM100.674 45.3464H99.5351V38.33H100.674V45.3464Z" fill="#005EF9"/>
<path d="M81.6865 49.8083L70.0848 52.424C67.9467 52.8556 65.7408 52.822 63.6169 52.3255C61.4929 51.829 59.5006 50.8813 57.7754 49.5467L53.9902 46.4693C49.8512 43.6228 52.5747 41.1147 53.9902 41.2686L69.2078 43.7305C69.6394 43.7783 70.0763 43.7341 70.4896 43.601C70.903 43.4679 71.2835 43.2488 71.6061 42.9582C71.9288 42.6675 72.1863 42.3118 72.3616 41.9145C72.537 41.5173 72.6263 41.0874 72.6237 40.6531C72.6278 40.0912 72.4779 39.5389 72.1904 39.0561C71.9029 38.5732 71.4887 38.1784 70.9927 37.9143L58.8217 31.4518C52.3263 28.0099 44.7539 27.2053 37.6802 29.2053L32.4487 30.6979H18.6006V47.3925H26.094C30.193 47.3886 34.2059 48.5695 37.6495 50.793L53.1747 60.8098C54.8171 61.8641 56.6783 62.5299 58.6167 62.7565C60.5551 62.9832 62.5197 62.7647 64.3609 62.1177L83.3944 55.3783C84.0136 55.22 84.5726 54.8833 85.002 54.4101C85.4315 53.9369 85.7125 53.3479 85.8102 52.7164C85.8124 52.221 85.6951 51.7324 85.4681 51.2922C85.2411 50.8519 84.9112 50.4729 84.5064 50.1874C84.1016 49.9019 83.6338 49.7184 83.1429 49.6524C82.6519 49.5864 82.1523 49.6398 81.6865 49.8083Z" fill="#005EF9"/>
</svg>
