<svg width="133" height="83" viewBox="0 0 133 83" fill="none" xmlns="http://www.w3.org/2000/svg">
<g opacity="0.5">
<path d="M47.2066 8.19385H29.612C29.2013 8.19385 28.8684 8.52785 28.8684 8.93986C28.8684 9.35187 29.2013 9.68587 29.612 9.68587H47.2066C47.6173 9.68587 47.9503 9.35187 47.9503 8.93986C47.9503 8.52785 47.6173 8.19385 47.2066 8.19385Z" fill="#9FC5FF"/>
<path d="M61.6255 8.19385H52.8728C52.4621 8.19385 52.1292 8.52785 52.1292 8.93986C52.1292 9.35187 52.4621 9.68587 52.8728 9.68587H61.6255C62.0362 9.68587 62.3691 9.35187 62.3691 8.93986C62.3691 8.52785 62.0362 8.19385 61.6255 8.19385Z" fill="#9FC5FF"/>
<path d="M101.812 14.2963H84.2175C83.8068 14.2963 83.4739 14.6303 83.4739 15.0423C83.4739 15.4543 83.8068 15.7883 84.2175 15.7883H101.812C102.223 15.7883 102.556 15.4543 102.556 15.0423C102.556 14.6303 102.223 14.2963 101.812 14.2963Z" fill="#9FC5FF"/>
<path d="M116.231 14.2963H107.478C107.068 14.2963 106.735 14.6303 106.735 15.0423C106.735 15.4543 107.068 15.7883 107.478 15.7883H116.231C116.642 15.7883 116.975 15.4543 116.975 15.0423C116.975 14.6303 116.642 14.2963 116.231 14.2963Z" fill="#9FC5FF"/>
<path d="M22.4949 19.9883H4.90038C4.48968 19.9883 4.15674 20.3223 4.15674 20.7343C4.15674 21.1463 4.48968 21.4803 4.90038 21.4803H22.4949C22.9056 21.4803 23.2386 21.1463 23.2386 20.7343C23.2386 20.3223 22.9056 19.9883 22.4949 19.9883Z" fill="#9FC5FF"/>
<path d="M36.9145 19.9883H28.1619C27.7512 19.9883 27.4182 20.3223 27.4182 20.7343C27.4182 21.1463 27.7512 21.4803 28.1619 21.4803H36.9145C37.3252 21.4803 37.6582 21.1463 37.6582 20.7343C37.6582 20.3223 37.3252 19.9883 36.9145 19.9883Z" fill="#9FC5FF"/>
<path d="M25.3061 35.4905H0.743642C0.33294 35.4905 0 35.8245 0 36.2365C0 36.6485 0.33294 36.9825 0.743642 36.9825H25.3061C25.7168 36.9825 26.0498 36.6485 26.0498 36.2365C26.0498 35.8245 25.7168 35.4905 25.3061 35.4905Z" fill="#9FC5FF"/>
<path d="M44.9981 35.4905H32.5049C32.0942 35.4905 31.7612 35.8245 31.7612 36.2365C31.7612 36.6485 32.0942 36.9825 32.5049 36.9825H44.9981C45.4088 36.9825 45.7417 36.6485 45.7417 36.2365C45.7417 35.8245 45.4088 35.4905 44.9981 35.4905Z" fill="#9FC5FF"/>
<path d="M102.154 48.5457H77.5915C77.1808 48.5457 76.8479 48.8797 76.8479 49.2917C76.8479 49.7037 77.1808 50.0377 77.5915 50.0377H102.154C102.565 50.0377 102.898 49.7037 102.898 49.2917C102.898 48.8797 102.565 48.5457 102.154 48.5457Z" fill="#9FC5FF"/>
<path d="M121.846 48.5457H109.353C108.942 48.5457 108.609 48.8797 108.609 49.2917C108.609 49.7037 108.942 50.0377 109.353 50.0377H121.846C122.257 50.0377 122.59 49.7037 122.59 49.2917C122.59 48.8797 122.257 48.5457 121.846 48.5457Z" fill="#9FC5FF"/>
<path d="M85.9052 38.0344H61.3428C60.9321 38.0344 60.5991 38.3684 60.5991 38.7804C60.5991 39.1924 60.9321 39.5264 61.3428 39.5264H85.9052C86.316 39.5264 86.6489 39.1924 86.6489 38.7804C86.6489 38.3684 86.316 38.0344 85.9052 38.0344Z" fill="#9FC5FF"/>
<path d="M105.597 38.0344H93.104C92.6933 38.0344 92.3604 38.3684 92.3604 38.7804C92.3604 39.1924 92.6933 39.5264 93.104 39.5264H105.597C106.008 39.5264 106.341 39.1924 106.341 38.7804C106.341 38.3684 106.008 38.0344 105.597 38.0344Z" fill="#9FC5FF"/>
<path d="M25.3138 47.8071H11.5862C11.1755 47.8071 10.8425 48.1411 10.8425 48.5531C10.8425 48.9652 11.1755 49.2992 11.5862 49.2992H25.3138C25.7245 49.2992 26.0574 48.9652 26.0574 48.5531C26.0574 48.1411 25.7245 47.8071 25.3138 47.8071Z" fill="#9FC5FF"/>
<path d="M20.0711 60.5863H11.5862C11.1755 60.5863 10.8425 60.9203 10.8425 61.3323C10.8425 61.7443 11.1755 62.0783 11.5862 62.0783H20.0711C20.4818 62.0783 20.8148 61.7443 20.8148 61.3323C20.8148 60.9203 20.4818 60.5863 20.0711 60.5863Z" fill="#9FC5FF"/>
<path d="M46.2026 60.5863H24.4065C23.9958 60.5863 23.6628 60.9203 23.6628 61.3323C23.6628 61.7443 23.9958 62.0783 24.4065 62.0783H46.2026C46.6133 62.0783 46.9463 61.7443 46.9463 61.3323C46.9463 60.9203 46.6133 60.5863 46.2026 60.5863Z" fill="#9FC5FF"/>
<path d="M35.5686 69.1879H13.7725C13.3617 69.1879 13.0288 69.5219 13.0288 69.9339C13.0288 70.3459 13.3617 70.6799 13.7725 70.6799H35.5686C35.9793 70.6799 36.3122 70.3459 36.3122 69.9339C36.3122 69.5219 35.9793 69.1879 35.5686 69.1879Z" fill="#9FC5FF"/>
<path d="M70.4898 69.1879H58.7849C58.3742 69.1879 58.0413 69.5219 58.0413 69.9339C58.0413 70.3459 58.3742 70.6799 58.7849 70.6799H70.4898C70.9005 70.6799 71.2335 70.3459 71.2335 69.9339C71.2335 69.5219 70.9005 69.1879 70.4898 69.1879Z" fill="#9FC5FF"/>
<path d="M99.2836 69.1879H74.3716C73.9609 69.1879 73.6279 69.5219 73.6279 69.9339C73.6279 70.3459 73.9609 70.6799 74.3716 70.6799H99.2836C99.6943 70.6799 100.027 70.3459 100.027 69.9339C100.027 69.5219 99.6943 69.1879 99.2836 69.1879Z" fill="#9FC5FF"/>
<path d="M118.024 64.9803H99.7971C99.3864 64.9803 99.0535 65.3143 99.0535 65.7264C99.0535 66.1384 99.3864 66.4724 99.7971 66.4724H118.024C118.434 66.4724 118.767 66.1384 118.767 65.7264C118.767 65.3143 118.434 64.9803 118.024 64.9803Z" fill="#9FC5FF"/>
<path d="M118.024 74.4249H99.7971C99.3864 74.4249 99.0535 74.7589 99.0535 75.1709C99.0535 75.583 99.3864 75.917 99.7971 75.917H118.024C118.434 75.917 118.767 75.583 118.767 75.1709C118.767 74.7589 118.434 74.4249 118.024 74.4249Z" fill="#9FC5FF"/>
<path d="M115.845 57.7739H90.9329C90.5221 57.7739 90.1892 58.1079 90.1892 58.5199C90.1892 58.932 90.5221 59.266 90.9329 59.266H115.845C116.256 59.266 116.588 58.932 116.588 58.5199C116.588 58.1079 116.256 57.7739 115.845 57.7739Z" fill="#9FC5FF"/>
<path d="M132.257 57.7739H122.455C122.045 57.7739 121.712 58.1079 121.712 58.5199C121.712 58.932 122.045 59.266 122.455 59.266H132.257C132.667 59.266 133 58.932 133 58.5199C133 58.1079 132.667 57.7739 132.257 57.7739Z" fill="#9FC5FF"/>
<path d="M38.9597 47.8071H32.5049C32.0942 47.8071 31.7612 48.1411 31.7612 48.5531C31.7612 48.9652 32.0942 49.2992 32.5049 49.2992H38.9597C39.3704 49.2992 39.7033 48.9652 39.7033 48.5531C39.7033 48.1411 39.3704 47.8071 38.9597 47.8071Z" fill="#9FC5FF"/>
<path d="M102.645 27.5305H85.0503C84.6396 27.5305 84.3066 27.8645 84.3066 28.2765C84.3066 28.6885 84.6396 29.0225 85.0503 29.0225H102.645C103.056 29.0225 103.388 28.6885 103.388 28.2765C103.388 27.8645 103.056 27.5305 102.645 27.5305Z" fill="#9FC5FF"/>
<path d="M126.412 27.5305H108.311C107.901 27.5305 107.568 27.8645 107.568 28.2765C107.568 28.6885 107.901 29.0225 108.311 29.0225H126.412C126.822 29.0225 127.155 28.6885 127.155 28.2765C127.155 27.8645 126.822 27.5305 126.412 27.5305Z" fill="#9FC5FF"/>
</g>
<path d="M36.5924 26.4177L33.0918 40.25L32.9672 40.7824L28.8323 57.107L53.2341 63.2924H53.3588L63.1014 65.7621L70.8728 35.1181L36.5924 26.4177ZM50.6172 33.702L55.0694 34.8349L52.747 44.0224L51.8634 43.4447H50.5153L49.2805 42.7763L48.2949 42.8782L50.6172 33.702ZM55.919 59.1461L55.2506 58.9875L56.3835 54.5354L57.0406 54.7053L55.919 59.1461ZM57.6523 59.5879L56.6667 59.3387L57.7996 54.8866L58.7852 55.1358L57.6523 59.5879ZM59.1364 59.9618L58.6379 59.8372L59.7708 55.385L60.2579 55.5096L59.1364 59.9618ZM60.6204 60.3356L60.1559 60.211L61.2888 55.7702L61.7873 55.8948L60.6204 60.3356Z" fill="#005EF9"/>
<path d="M47.8983 77.8835C47.9006 78.8497 47.6161 79.7948 47.081 80.5993C46.5458 81.4037 45.784 82.0313 44.8921 82.4026C44.0001 82.7739 43.018 82.8722 42.0701 82.6851C41.1222 82.4979 40.2511 82.0338 39.5672 81.3514C38.8832 80.669 38.417 79.799 38.2277 78.8516C38.0384 77.9041 38.1344 76.9218 38.5036 76.029C38.8729 75.1361 39.4987 74.3729 40.3019 73.8359C41.1051 73.2989 42.0495 73.0122 43.0157 73.0122C43.6563 73.0107 44.291 73.1356 44.8833 73.3798C45.4757 73.6239 46.014 73.9825 46.4675 74.435C46.9211 74.8875 47.2809 75.425 47.5264 76.0167C47.772 76.6085 47.8983 77.2429 47.8983 77.8835Z" fill="#005EF9"/>
<path d="M106.264 1.23414C105.901 0.651103 105.323 0.234071 104.656 0.0730027C103.988 -0.0880651 103.284 0.0197407 102.695 0.373165L97.314 3.6698C96.9299 3.90857 96.6143 4.2428 96.3979 4.63988C96.1815 5.03697 96.0717 5.48336 96.0792 5.93552L83.6177 14.9984L76.0162 44.4529H75.8576L75.7556 45.4611L67.9955 75.3347L24.0857 64.3459C23.8138 64.2768 23.5256 64.3186 23.2845 64.462C23.0433 64.6054 22.869 64.8387 22.7999 65.1106C22.7308 65.3825 22.7726 65.6708 22.916 65.9119C23.0594 66.153 23.2927 66.3273 23.5646 66.3964L69.5135 77.8836L90.1996 76.8527L70.3745 74.587L71.0542 71.9814L91.2645 71.8795L71.666 69.6137L72.3457 66.9742L92.3407 66.8382L72.9461 64.5725L73.6372 61.9216L93.4056 61.8197L74.2376 59.5539L74.8833 56.937L94.4365 56.8464L75.5177 54.6486L76.2201 51.9411L95.5581 51.8505L76.8092 49.6754L77.5116 46.9338L96.6229 46.8432L78.0893 44.6908L78.8143 41.9152L98.073 41.8246L79.4148 39.6495L80.1171 36.942L100.01 36.84L80.7515 34.5743L81.4313 31.9234L101.891 31.7195L82.043 29.3858L82.7114 26.8029L103.103 26.7122L83.3458 24.3559L85.6115 15.7461L96.7476 7.56684C97.147 8.03234 97.6985 8.34124 98.3041 8.43871C98.9096 8.53619 99.5302 8.41593 100.056 8.09929L105.448 4.80266C106.026 4.43453 106.435 3.85365 106.588 3.18576C106.741 2.51788 106.624 1.81674 106.264 1.23414Z" fill="#005EF9"/>
</svg>
